<svg width="24" height="24" viewBox="0 0 24 24" fill="none" xmlns="http://www.w3.org/2000/svg">
<g clip-path="url(#clip0_298_9920)">
<path d="M24 12C24 18.6275 18.6274 24 12 24C9.95186 24 8.02358 23.4869 6.33666 22.5822C4.94795 21.8375 4.22922 20.8274 3.23548 19.6197C2.29755 18.4799 1.05944 17.164 0.590729 15.7292C0.207341 14.5554 0 13.3019 0 12C0 9.78454 0.600377 7.70929 1.64734 5.92807C3.73224 2.38096 7.58805 0.880961 12 0.880961C13.32 0.880961 14.5903 0.213196 15.7783 0.606937C20.5545 2.19004 24 6.69268 24 12Z" fill="url(#paint0_linear_298_9920)"/>
<path d="M14.6707 1.68978C13.4628 1.28117 12.1688 1.05957 10.823 1.05957C8.02312 1.05957 5.68571 2.25703 3.64425 3.86437C3.01164 4.51355 2.21366 4.99576 1.74016 5.77444C1.26665 6.55312 0.879309 7.38997 0.591309 8.27185C0.642462 8.33392 0.700015 8.39195 0.765379 8.44357C1.0666 8.68141 1.46674 8.75308 1.83178 8.63458L5.09639 7.57463C5.49173 7.44625 5.92562 7.55049 6.2195 7.84442L7.00373 8.62865C7.32129 8.94621 7.41517 9.42428 7.24133 9.83835C6.99084 10.435 7.30406 11.1183 7.91959 11.3179L8.86312 11.6239C9.00538 11.6701 9.12994 11.7591 9.21969 11.8787C9.45672 12.1948 9.39729 12.6424 9.08595 12.8857L8.70449 13.1837C8.34863 13.4617 8.14063 13.8882 8.14063 14.3398V14.6767C8.14063 15.2552 8.42538 15.7965 8.90204 16.1242L9.55658 16.5742C9.61602 16.6151 9.6826 16.6444 9.75291 16.6606L10.1391 16.7497C10.9536 16.9377 11.5776 17.5932 11.7253 18.416C11.7819 18.7311 11.7653 19.0549 11.6768 19.3625L11.034 21.5968C10.9284 21.964 11.2041 22.3302 11.5862 22.3302C11.7309 22.3302 11.8703 22.2756 11.9765 22.1774L14.4388 19.8988C14.7859 19.5777 15.0677 19.1927 15.269 18.7649L15.8188 17.5967C16.0006 17.2103 16.1138 16.7951 16.1533 16.3699L16.3671 14.0655C16.4603 13.0612 16.0223 12.0812 15.2119 11.4807C14.7148 11.1124 14.1126 10.9135 13.494 10.9135H13.0535C12.3978 10.9135 11.8449 10.4249 11.7643 9.77416C11.7062 9.30437 11.9082 8.84014 12.2916 8.56249L12.7786 8.20992C12.9469 8.08799 13.1421 8.00828 13.3477 7.97741L14.5422 7.79821C15.3718 7.67378 16.096 7.17002 16.5012 6.43552C17.0257 5.48494 17.0523 4.33802 16.5727 3.36409C16.1848 2.57661 15.5022 1.9711 14.6707 1.68978Z" fill="url(#paint1_linear_298_9920)"/>
<path d="M12 0C11.6831 0 11.3691 0.0125176 11.0583 0.0366118C17.2456 0.516894 22.1167 5.68951 22.1167 12C22.1167 18.3105 17.2456 23.4831 11.0583 23.9634C11.3691 23.9875 11.6831 24 12 24C15.4577 24 18.5738 22.5376 20.7636 20.1976C20.7636 20.1976 23.9059 15.1697 23.9059 12C23.9059 9.68706 22.2119 5.69468 22.2119 5.69468C20.0971 2.27689 16.3144 0 12 0Z" fill="url(#paint2_linear_298_9920)"/>
<path d="M17.7494 2.30447C17.3616 1.51699 16.679 0.911529 15.8475 0.630212C14.6396 0.221553 13.3456 0 11.9998 0C7.60087 0 3.75484 2.36701 1.66571 5.89685C1.37273 6.39191 1.49075 7.02748 1.94223 7.384C2.24346 7.62184 2.6436 7.69351 3.00863 7.57501L6.27324 6.51506C6.66858 6.38668 7.10247 6.49092 7.39635 6.78485L8.18059 7.56908C8.49814 7.88664 8.59202 8.36471 8.41819 8.77878C8.16769 9.37543 8.48091 10.0587 9.09644 10.2584L10.04 10.5644C10.1822 10.6105 10.3068 10.6995 10.3965 10.8192C10.6336 11.1352 10.5741 11.5829 10.2628 11.8261L9.88134 12.1241C9.52548 12.4022 9.31748 12.8287 9.31748 13.2803V13.6172C9.31748 14.1956 9.60223 14.737 10.0789 15.0647L10.7334 15.5147C10.7929 15.5555 10.8595 15.5848 10.9298 15.6011L11.3159 15.6902C12.1305 15.8782 12.7545 16.5337 12.9022 17.3565C12.9587 17.6715 12.9421 17.9953 12.8536 18.303L12.2109 20.5373C12.1052 20.9046 12.3809 21.2707 12.7631 21.2707C12.9078 21.2707 13.0471 21.2161 13.1533 21.1178L15.6157 18.8392C15.9627 18.5181 16.2445 18.1332 16.4459 17.7054L16.9956 16.5371C17.1775 16.1507 17.2907 15.7356 17.3301 15.3104L17.5439 13.006C17.6371 12.0017 17.1991 11.0216 16.3887 10.4211C15.8917 10.0528 15.2895 9.85402 14.6709 9.85402H14.2303C13.5746 9.85402 13.0218 9.36537 12.9412 8.71464C12.883 8.24485 13.0851 7.78061 13.4685 7.50296L13.9554 7.1504C14.1238 7.02847 14.319 6.94875 14.5246 6.91788L15.7191 6.73868C16.5486 6.61426 17.2729 6.11049 17.6781 5.376C18.2025 4.42532 18.2291 3.2784 17.7494 2.30447Z" fill="url(#paint3_linear_298_9920)"/>
<path d="M4.86683 17.8518C4.05079 17.4466 3.40843 16.7605 3.05789 15.9195L2.67704 15.0059C2.52137 14.6324 2.17403 14.3739 1.77163 14.3319C0.973044 14.2486 0.355161 15.0177 0.607867 15.7798C1.5817 18.7164 3.65921 21.1494 6.34881 22.5879L6.52279 20.8456C6.64707 19.6004 5.98768 18.4082 4.86683 17.8518Z" fill="url(#paint4_linear_298_9920)"/>
<path d="M22.2113 5.69507L22.1361 5.83596C21.503 7.02312 21.6769 8.47907 22.5719 9.48363C23.0977 10.0738 23.3883 10.8367 23.3883 11.6272C23.3883 12.5523 22.9907 13.4328 22.2966 14.0445L21.358 14.8719C20.748 15.4096 20.3985 16.1835 20.3985 16.9966V17.2422C20.3985 17.7237 20.2757 18.1973 20.0418 18.6182L19.6237 19.3704C19.5183 19.56 19.5055 19.7873 19.589 19.9875C19.7875 20.4637 20.4106 20.5737 20.7631 20.197C22.7706 18.052 24 15.1697 24 12C24 9.68697 23.345 7.5273 22.2113 5.69507Z" fill="url(#paint5_linear_298_9920)"/>
<path d="M22.2113 5.69507L22.1362 5.83596C21.503 7.02312 21.677 8.47907 22.5719 9.48363C23.0978 10.0738 23.3883 10.8367 23.3883 11.6272C23.3883 12.5523 22.9907 13.4328 22.2967 14.0445L21.872 14.4188C21.5113 16.181 20.7645 17.8023 19.7236 19.1907L19.6237 19.3704C19.5183 19.56 19.5055 19.7873 19.589 19.9875C19.7875 20.4637 20.4106 20.5737 20.7631 20.197C22.7707 18.052 24.0001 15.1697 24.0001 12C24.0001 9.68697 23.3451 7.5273 22.2113 5.69507Z" fill="url(#paint6_linear_298_9920)"/>
<path d="M13.4686 7.50287L13.9555 7.15031C14.1239 7.02838 14.3191 6.94866 14.5247 6.91779L15.7192 6.73859C16.5487 6.61417 17.273 6.1104 17.6782 5.37591C18.2027 4.42532 18.2293 3.2784 17.7496 2.30447C17.3618 1.51699 16.6792 0.91153 15.8476 0.630212C14.6398 0.221553 13.3458 0 12 0C11.6829 0 11.3688 0.0127059 11.0579 0.0368471C12.0668 0.115153 13.0408 0.317788 13.9643 0.630212C14.7958 0.91153 15.4784 1.51699 15.8663 2.30447C16.346 3.2784 16.3193 4.42532 15.7948 5.37591C15.3896 6.1104 14.6654 6.61417 13.8358 6.73859L12.6413 6.91779C12.4357 6.94861 12.2405 7.02838 12.0722 7.15031L11.5852 7.50287C11.2019 7.78052 10.9998 8.24475 11.0579 8.71454C11.1385 9.36527 11.6914 9.85393 12.3471 9.85393H12.7876C13.4062 9.85393 14.0085 10.0528 14.5055 10.421C15.3158 11.0215 15.7539 12.0016 15.6607 13.0059L15.4469 15.3103C15.4075 15.7355 15.2942 16.1506 15.1124 16.537L14.5626 17.7053C14.3613 18.133 14.0795 18.518 13.7324 18.8392L12.3247 20.1418L12.2109 20.5371C12.1053 20.9044 12.381 21.2705 12.7631 21.2705C12.9078 21.2705 13.0472 21.216 13.1534 21.1177L15.6157 18.8391C15.9627 18.518 16.2446 18.133 16.4459 17.7052L16.9957 16.5369C17.1775 16.1505 17.2907 15.7354 17.3302 15.3102L17.544 13.0058C17.6371 12.0016 17.1992 11.0215 16.3888 10.421C15.8917 10.0527 15.2895 9.85388 14.6709 9.85388H14.2304C13.5747 9.85388 13.0218 9.36522 12.9412 8.71449C12.8831 8.24471 13.0851 7.78052 13.4686 7.50287Z" fill="url(#paint7_linear_298_9920)"/>
<path d="M4.86703 17.8517C4.05099 17.4466 3.40863 16.7604 3.05809 15.9195L2.67724 15.0058C2.52157 14.6324 2.17423 14.3739 1.77183 14.3319C1.50953 14.3045 1.26699 14.3696 1.06812 14.4957C1.25804 14.6151 1.41089 14.7914 1.50026 15.0058L1.8811 15.9195C2.23164 16.7604 2.874 17.4466 3.69004 17.8517C4.81089 18.4082 5.47028 19.6003 5.34595 20.8456L5.23932 21.9138C5.59602 22.1575 5.96604 22.3831 6.34901 22.5879L6.52299 20.8456C6.64727 19.6004 5.98788 18.4082 4.86703 17.8517Z" fill="url(#paint8_linear_298_9920)"/>
</g>
<defs>
<linearGradient id="paint0_linear_298_9920" x1="-0.388706" y1="12.2413" x2="29.0454" y2="12.2413" gradientUnits="userSpaceOnUse">
<stop stop-color="#60B7FF"/>
<stop offset="0.5857" stop-color="#0182FC"/>
<stop offset="1" stop-color="#2740B0"/>
</linearGradient>
<linearGradient id="paint1_linear_298_9920" x1="-5.74116" y1="11.6949" x2="25.7562" y2="11.6949" gradientUnits="userSpaceOnUse">
<stop stop-color="#60B7FF"/>
<stop offset="0.5857" stop-color="#0182FC"/>
<stop offset="1" stop-color="#2740B0"/>
</linearGradient>
<linearGradient id="paint2_linear_298_9920" x1="-1.69483" y1="12" x2="24.3125" y2="12" gradientUnits="userSpaceOnUse">
<stop stop-color="#60B7FF"/>
<stop offset="0.5857" stop-color="#0182FC"/>
<stop offset="1" stop-color="#2740B0"/>
</linearGradient>
<linearGradient id="paint3_linear_298_9920" x1="0.329244" y1="10.6353" x2="24.9917" y2="10.6353" gradientUnits="userSpaceOnUse">
<stop stop-color="#A2E62E"/>
<stop offset="0.5857" stop-color="#81B823"/>
<stop offset="1" stop-color="#037E73"/>
</linearGradient>
<linearGradient id="paint4_linear_298_9920" x1="0.329326" y1="18.4568" x2="24.9918" y2="18.4568" gradientUnits="userSpaceOnUse">
<stop stop-color="#A2E62E"/>
<stop offset="0.5857" stop-color="#81B823"/>
<stop offset="1" stop-color="#037E73"/>
</linearGradient>
<linearGradient id="paint5_linear_298_9920" x1="0.32944" y1="13.0591" x2="24.9919" y2="13.0591" gradientUnits="userSpaceOnUse">
<stop stop-color="#A2E62E"/>
<stop offset="0.5857" stop-color="#81B823"/>
<stop offset="1" stop-color="#037E73"/>
</linearGradient>
<linearGradient id="paint6_linear_298_9920" x1="8.28243" y1="13.0591" x2="19.0439" y2="13.0591" gradientUnits="userSpaceOnUse">
<stop stop-color="#A2E62E"/>
<stop offset="0.5857" stop-color="#81B823"/>
<stop offset="1" stop-color="#037E73"/>
</linearGradient>
<linearGradient id="paint7_linear_298_9920" x1="-0.370383" y1="10.6353" x2="21.8661" y2="10.6353" gradientUnits="userSpaceOnUse">
<stop stop-color="#A2E62E"/>
<stop offset="0.5857" stop-color="#81B823"/>
<stop offset="1" stop-color="#037E73"/>
</linearGradient>
<linearGradient id="paint8_linear_298_9920" x1="-1.8525" y1="18.4568" x2="14.4623" y2="18.4568" gradientUnits="userSpaceOnUse">
<stop stop-color="#A2E62E"/>
<stop offset="0.5857" stop-color="#81B823"/>
<stop offset="1" stop-color="#037E73"/>
</linearGradient>
<clipPath id="clip0_298_9920">
<rect width="24" height="24" fill="white"/>
</clipPath>
</defs>
</svg>
