<svg width="32" height="32" viewBox="0 0 32 32" fill="none" xmlns="http://www.w3.org/2000/svg">
<g clip-path="url(#clip0_908_2500)">
<circle cx="16" cy="16" r="16" fill="#FEFA17"/>
<g clip-path="url(#clip1_908_2500)">
<path d="M32 32H1C2.35931 31.3291 3.66218 30.5446 4.89534 29.6547C7.21575 27.9803 10.3656 26.3005 13.988 25.9785C20.146 25.4311 27.7739 29.9606 32 32Z" fill="black"/>
<path d="M16.4974 21.5617C15.1849 18.4114 12.8225 17.0429 11.5731 16.9195C11.2151 16.8959 10.8562 16.9475 10.5185 17.0712C10.1808 17.1948 9.87148 17.388 9.60964 17.6386C9.8068 17.3943 10.0208 17.1647 10.2501 16.9517C9.91938 16.6458 9.53089 16.3506 9.53089 16.3506C9.87738 16.517 10.2554 16.737 10.3919 16.8229C10.7506 16.5031 11.1333 16.2124 11.5363 15.9535C11.1912 15.6683 10.8282 15.4065 10.4496 15.1699C10.9245 15.3307 11.3833 15.5374 11.8198 15.7871C12.3611 15.4701 12.9244 15.1939 13.505 14.9606C13.2788 14.7683 13.0422 14.5891 12.7963 14.424C13.136 14.5463 13.4659 14.6952 13.7832 14.8694C14.4082 14.6272 15.0484 14.4282 15.6994 14.2737C12.476 13.356 9.95613 14.381 9.07416 15.3095C8.71597 15.6924 8.48933 16.184 8.42844 16.7102C8.04382 15.8144 7.3715 15.0798 6.52277 14.6279C4.60134 13.8068 2.67992 15.4168 2.67992 15.4168C3.47844 15.259 4.30514 15.3564 5.04758 15.6959L5.76155 15.2182L5.27857 15.8032C6.03447 16.2022 6.71805 16.7304 7.29973 17.3649C6.81616 17.062 6.24388 16.9424 5.6828 17.0268C4.4386 17.2361 2.17594 18.771 1.07874 22.0072C1.5618 21.5617 2.07588 21.1528 2.61692 20.7835C2.66129 20.4214 2.7297 20.0628 2.82166 19.7102C2.81755 20.0149 2.83158 20.3196 2.86366 20.6225C3.38194 20.2644 3.92597 19.9469 4.4911 19.6726C4.53673 19.1634 4.63169 18.66 4.77459 18.1699C4.74433 18.6238 4.74433 19.0792 4.77459 19.5331C5.20792 19.3398 5.65555 19.1819 6.11328 19.0608C6.11328 18.8945 6.16053 18.4544 6.22353 18.068C6.22353 18.068 6.22353 18.5617 6.29703 19.0125C6.46852 18.9732 6.64351 18.941 6.822 18.9159C6.19203 19.5492 5.5568 20.9177 5.61455 23.8587C5.61455 23.8587 5.98729 22.9839 6.46502 22.0716C6.37262 21.705 6.32327 21.3284 6.31802 20.9499C6.31802 20.9499 6.45452 21.3953 6.60676 21.7978C6.74851 21.5295 6.90075 21.2612 7.04774 21.0304L7.08449 20.9714C7.032 20.6816 6.9375 20.102 6.91125 19.6995C6.91125 19.6995 7.06349 20.2361 7.24199 20.7245C7.60027 20.1597 8.0213 19.6393 8.49669 19.1735C11.4261 24.3148 11.1216 31.8014 11.1216 31.8014L12.497 31.678C12.119 24.5402 9.85113 20.2844 9.00592 18.9267C9.68806 18.8 10.3869 18.8 11.0691 18.9267C11.0691 18.4705 11.0691 17.9767 11.0691 17.9767C11.1583 18.3578 11.2213 18.7978 11.2423 18.9589C11.7079 19.0473 12.1661 19.1729 12.6125 19.3345C12.6222 18.8738 12.6012 18.413 12.5495 17.9553C12.725 18.4348 12.8534 18.931 12.9328 19.4365C13.524 19.6623 14.0979 19.9332 14.6494 20.2469C14.6666 19.943 14.6666 19.6384 14.6494 19.3345C14.7646 19.6854 14.8559 20.0441 14.9224 20.4079C15.4738 20.7533 16.0002 21.1389 16.4974 21.5617Z" fill="black"/>
<path d="M8.50721 15.8408C9.26318 11.059 12.0456 8.36494 13.7255 7.7585C14.208 7.60026 14.7173 7.54575 15.2215 7.5984C15.7256 7.65104 16.2136 7.8097 16.6549 8.06441C16.3031 7.80409 15.9328 7.57089 15.5472 7.36673C15.8989 6.83006 16.3346 6.29339 16.3346 6.29339C15.9147 6.64222 15.4737 7.07693 15.3109 7.23793C14.7146 6.92831 14.0948 6.66809 13.4578 6.45976C13.8334 5.94434 14.2421 5.4549 14.681 4.99464C14.0816 5.3692 13.5206 5.80429 13.0063 6.29339C12.1557 6.05034 11.2889 5.87097 10.4129 5.75671C10.6575 5.40619 10.9203 5.06939 11.2003 4.74777C10.7782 5.03895 10.3765 5.35995 9.99815 5.70841C9.07712 5.59128 8.14883 5.54463 7.22101 5.56888C11.3421 3.17532 15.1377 3.70662 16.6496 4.68337C17.267 5.08489 17.7433 5.67702 18.0093 6.37389C18.3138 5.05367 18.8808 3.64222 19.9255 2.85332C22.2564 1.0823 25.4273 2.61718 25.4273 2.61718C24.2807 2.67819 23.1805 3.09993 22.2774 3.82469L21.1382 3.41682L21.9992 4.05546C21.0938 4.86115 20.3302 5.81958 19.7418 6.88909C20.3093 6.32036 21.0505 5.96799 21.8417 5.89088C23.6266 5.75671 27.249 7.0662 29.8161 11.1234C29.0002 10.6692 28.1548 10.2729 27.2857 9.93739C27.1086 9.44969 26.8963 8.97612 26.6505 8.52058C26.7562 8.93762 26.8386 9.36049 26.8972 9.78713C26.0656 9.4783 25.2128 9.23255 24.3458 9.05188C24.1165 8.36788 23.8192 7.7097 23.4586 7.08766C23.6424 7.70304 23.7845 8.33064 23.8838 8.96602C23.2248 8.84937 22.5577 8.78656 21.8889 8.77818C21.8154 8.55815 21.6212 7.96244 21.4059 7.45797C21.4059 7.45797 21.5477 8.14491 21.6212 8.77818C21.3744 8.77818 21.0962 8.77818 20.881 8.82112C21.9309 9.47586 23.2801 11.1288 24.1726 15.1861C24.1726 15.1861 23.3694 14.1127 22.4139 13.0394C22.4216 12.4974 22.3634 11.9566 22.2407 11.4293C22.2407 11.4293 22.2039 12.0895 22.1304 12.6959C21.8469 12.3793 21.5529 12.068 21.2694 11.7943L21.2012 11.7299C21.2012 11.3113 21.1119 10.4902 21.0122 9.92666C21.0122 9.92666 21.0122 10.7209 20.8967 11.4508C20.2287 10.8129 19.4906 10.2564 18.697 9.79249C16.3924 17.8426 19.2798 28.0394 19.2798 28.0394L17.3478 28.3506C15.5104 18.4383 17.2061 11.7889 17.9148 9.62612C16.9376 9.68244 15.9779 9.91501 15.0799 10.3131C14.8909 9.70126 14.7492 9.01432 14.7492 9.01432C14.7539 9.48595 14.7819 9.95704 14.8332 10.4258C14.2218 10.7056 13.6336 11.0359 13.0745 11.4132C12.916 10.7887 12.7985 10.154 12.7228 9.51342C12.6435 10.2262 12.633 10.9452 12.6913 11.6601C11.9702 12.1844 11.2876 12.762 10.6491 13.3882C10.5337 12.9734 10.4408 12.5523 10.3709 12.127C10.3356 12.647 10.3356 13.1688 10.3709 13.6887C9.69893 14.3585 9.07603 15.0777 8.50721 15.8408Z" fill="black"/>
</g>
</g>
<defs>
<clipPath id="clip0_908_2500">
<rect width="32" height="32" rx="16" fill="white"/>
</clipPath>
<clipPath id="clip1_908_2500">
<rect width="31" height="30" fill="white" transform="translate(1 2)"/>
</clipPath>
</defs>
</svg>
