<svg width="60" height="60" viewBox="0 0 60 60" fill="none" xmlns="http://www.w3.org/2000/svg">
<g clip-path="url(#clip0_62_19105)">
<path d="M41.5317 40.3598H37.9354L36.0672 39.5284V37.26C38.6829 35.8189 40.735 33.4766 41.8028 30.6544H43.4054C47.2219 30.6544 50.3269 27.5494 50.3269 23.7329C50.3269 21.2686 49.0312 19.1023 47.0864 17.8757V17.0864C47.0865 7.66488 39.4215 0 30 0C20.5785 0 12.9135 7.66488 12.9135 17.0865V17.8752C10.9682 19.1018 9.67219 21.2682 9.67219 23.7329C9.67219 27.5494 12.7772 30.6544 16.5936 30.6544H18.1971C19.2649 33.4766 21.317 35.8189 23.9327 37.26V39.519L22.0436 40.3597H18.4682C8.2848 40.3598 0 48.6448 0 58.8281C0 59.4752 0.524648 60 1.17188 60H24.7266C25.3738 60 25.8984 59.4752 25.8984 58.8281C25.8984 58.181 25.3738 57.6562 24.7266 57.6562H2.38582C2.97012 49.5577 9.56227 43.0978 17.7158 42.7214C17.7128 42.7313 17.7086 42.7406 17.7057 42.7505C17.6107 43.0844 17.6687 43.4433 17.8639 43.7304L23.4075 51.8801C23.6039 52.1688 23.9188 52.3549 24.2664 52.3877C24.3032 52.3911 24.34 52.3929 24.3766 52.3929C24.6859 52.3929 24.9844 52.2704 25.2052 52.0496L29.9896 47.2652L34.7739 52.0496C34.9946 52.2704 35.2932 52.3929 35.6024 52.3929C35.6389 52.3929 35.6757 52.3911 35.7125 52.3877C36.0602 52.3549 36.3751 52.1688 36.5715 51.8801L42.1152 43.7304C42.3104 43.4434 42.3683 43.0843 42.2734 42.7505C42.2705 42.7403 42.2663 42.7308 42.2631 42.7207C50.4264 43.0869 57.0294 49.5509 57.6142 57.6564H35.2734C34.6263 57.6564 34.1016 58.1811 34.1016 58.8282C34.1016 59.4754 34.6263 60.0001 35.2734 60.0001H58.8281C59.4752 60.0001 60 59.4754 60 58.8282C60 48.6448 51.7152 40.3598 41.5317 40.3598ZM40.2465 18.2364C37.8389 17.9058 35.5795 16.9465 33.6599 15.4277C33.2391 15.0947 32.6455 15.0902 32.2195 15.4171C29.7021 17.3486 26.6906 18.3695 23.5109 18.3695C22.2347 18.3695 20.9763 18.1995 19.7575 17.8691V17.2733C19.7575 11.6258 24.352 7.03125 29.9995 7.03125C35.647 7.03125 40.2417 11.6258 40.2417 17.2733C40.2418 17.2733 40.2441 18.205 40.2465 18.2364ZM43.4055 28.3107H42.6137V19.1552H43.4055C45.9298 19.1552 47.9832 21.2087 47.9832 23.733C47.9832 26.2571 45.9298 28.3107 43.4055 28.3107ZM30 2.34375C38.0809 2.34375 44.663 8.87918 44.7409 16.942C44.3086 16.8572 43.8623 16.8115 43.4054 16.8115H42.5761C42.3321 10.0848 36.7848 4.6875 29.9995 4.6875C23.2143 4.6875 17.667 10.0848 17.423 16.8115H16.5938C16.1372 16.8115 15.6913 16.8571 15.2591 16.9419C15.3371 8.87918 21.9192 2.34375 30 2.34375ZM17.3855 28.3107H16.5938C14.0695 28.3107 12.0161 26.2571 12.0161 23.7329C12.0161 21.2087 14.0695 19.1551 16.5938 19.1551H17.3856L17.3855 28.3107ZM19.7292 26.2037V20.2811C20.9639 20.5679 22.2301 20.7132 23.5109 20.7132C26.9114 20.7132 30.1471 19.7095 32.9232 17.8017C35.1053 19.3397 37.6157 20.2945 40.2698 20.6009V26.2668C40.2632 27.3653 40.0832 28.4234 39.7559 29.4151H34.1597C33.6755 28.0459 32.3686 27.062 30.8358 27.062H29.267C27.3233 27.062 25.7421 28.6433 25.7421 30.587C25.7421 32.5307 27.3233 34.112 29.267 34.112H30.8358C32.3687 34.112 33.6756 33.1281 34.1597 31.7589H38.6348C36.805 34.5938 33.618 36.4744 30 36.4744C24.3367 36.4744 19.7292 31.867 19.7292 26.2037ZM32.0172 30.587C32.0172 31.2384 31.4873 31.7682 30.8359 31.7682H29.2671C28.6158 31.7682 28.086 31.2384 28.086 30.587C28.086 29.9355 28.6158 29.4057 29.2671 29.4057H30.8359C31.4872 29.4057 32.0172 29.9355 32.0172 30.587ZM30 38.8181C31.2956 38.8181 32.546 38.6215 33.7234 38.257V40.2166L29.9896 43.9505L26.2765 40.2375V38.257C27.454 38.6215 28.7044 38.8181 30 38.8181ZM24.549 49.3911L20.5907 43.5718L24.5389 41.8147L28.3322 45.608L24.549 49.3911ZM35.43 49.3911L31.6468 45.608L35.4401 41.8147L39.3885 43.5718L35.43 49.3911Z" fill="#F2F2F2"/>
<path d="M30 57.6562C29.6918 57.6562 29.3895 57.7815 29.1715 57.9996C28.9535 58.2176 28.8281 58.5199 28.8281 58.8281C28.8281 59.1363 28.9534 59.4387 29.1715 59.6565C29.3895 59.8745 29.6918 60 30 60C30.3082 60 30.6105 59.8746 30.8284 59.6565C31.0465 59.4387 31.1719 59.1363 31.1719 58.8281C31.1719 58.5199 31.0465 58.2176 30.8284 57.9996C30.6105 57.7815 30.3082 57.6562 30 57.6562Z" fill="#F2F2F2"/>
</g>
<defs>
<clipPath id="clip0_62_19105">
<rect width="60" height="60" fill="white"/>
</clipPath>
</defs>
</svg>
