<svg width="60" height="60" viewBox="0 0 60 60" fill="none" xmlns="http://www.w3.org/2000/svg">
<path d="M53.2357 48.8158C52.5505 48.8158 51.9168 49.0168 51.3699 49.3467L42.8024 41.0789C45.3334 38.0879 46.8661 34.2251 46.8661 30.0001C46.8661 25.7412 45.3067 21.8525 42.7392 18.8517L50.8716 10.4251C51.5081 10.9758 52.3279 11.3208 53.2357 11.3208C55.2407 11.3208 56.8661 9.69541 56.8661 7.6903C56.8661 5.68526 55.2407 4.05984 53.2357 4.05984C51.2306 4.05984 49.6052 5.68526 49.6052 7.6903C49.6052 8.37601 49.8066 9.01018 50.1368 9.55729L41.9767 18.0127C38.9825 14.9456 34.8505 13.0086 30.2619 12.8588V8.70042C31.5212 8.43917 32.4676 7.32423 32.4676 5.98763C32.4676 4.45707 31.2268 3.21631 29.6963 3.21631C28.1658 3.21631 26.9251 4.45707 26.9251 5.98763C26.9251 7.32395 27.8712 8.43855 29.1299 8.70014V12.8588C24.5886 13.0073 20.4909 14.9025 17.5043 17.9155L9.49985 10.1905C10.0504 9.55397 10.3953 8.73442 10.3953 7.82677C10.3953 5.82173 8.76992 4.1963 6.76474 4.1963C4.7597 4.1963 3.13428 5.82173 3.13428 7.82677C3.13428 9.83187 4.7597 11.4573 6.76474 11.4573C7.45004 11.4573 8.08379 11.2562 8.63062 10.9262L16.742 18.7542C14.1232 21.7681 12.5266 25.6938 12.5266 30.0001C12.5266 34.485 14.2603 38.5552 17.076 41.6135L9.12922 49.8482C8.4927 49.2973 7.67267 48.9522 6.76474 48.9522C4.7597 48.9522 3.13428 50.5776 3.13428 52.5827C3.13428 54.5878 4.7597 56.2132 6.76474 56.2132C8.76992 56.2132 10.3953 54.5878 10.3953 52.5827C10.3953 51.8971 10.1941 51.2631 9.86385 50.7161L17.8663 42.4235C20.8185 45.2355 24.7657 46.9985 29.1299 47.1412V51.3C27.8712 51.5616 26.9251 52.6762 26.9251 54.0125C26.9251 55.5431 28.1658 56.7838 29.6963 56.7838C31.2268 56.7838 32.4676 55.5431 32.4676 54.0125C32.4676 52.6759 31.5212 51.561 30.2619 51.2997V47.1413C34.8841 46.9904 39.0408 45.0238 42.0401 41.9177L50.5008 50.0824C49.9501 50.7189 49.6052 51.5386 49.6052 52.4463C49.6052 54.4513 51.2306 56.0767 53.2357 56.0767C55.2407 56.0767 56.8661 54.4513 56.8661 52.4463C56.8661 50.4412 55.2407 48.8158 53.2357 48.8158ZM37.7288 36.2762L25.675 34.179L25.2414 34.2693L26.2953 39.3552C26.5683 40.6382 25.7403 41.9079 24.449 42.1826C24.2865 42.2158 24.124 42.2318 23.9637 42.2318C22.8471 42.2318 21.8488 41.4563 21.6177 40.333L20.4198 34.5816C18.9014 34.0507 17.6875 32.7623 17.3359 31.0758C17.0772 29.837 17.316 28.5701 18.007 27.5076C18.7079 26.4469 19.7726 25.7233 21.0086 25.4662L23.7459 24.8963L33.9578 18.1652C34.6255 17.7269 35.4613 17.6473 36.1954 17.9502C36.9306 18.2542 37.4668 18.9004 37.6293 19.6798L38.2155 22.4964C40.0307 22.4013 41.6989 23.627 42.0769 25.4591C42.2825 26.4353 42.0946 27.4352 41.5451 28.2721C41.1032 28.9479 40.4633 29.4409 39.7185 29.7186L40.4893 33.4223C40.6518 34.2017 40.4186 35.0087 39.8647 35.5809C39.4081 36.0524 38.7857 36.3116 38.1411 36.3116C38.0041 36.3116 37.867 36.3 37.7288 36.2762Z" fill="#F2F2F2"/>
<path d="M24.1333 34.5L22.9396 34.7485C22.6156 34.8159 22.2917 34.8485 21.9722 34.8485C21.8545 34.8485 21.7409 34.827 21.6245 34.8183L22.7251 40.1037C22.8644 40.7798 23.5388 41.212 24.2176 41.0749C24.893 40.9307 25.3308 40.2629 25.1871 39.588L24.1333 34.5Z" fill="#F2F2F2"/>
<path d="M22.7098 33.6399L25.0007 33.1624L23.5292 26.0972L21.2383 26.5743C20.2975 26.77 19.486 27.3217 18.9531 28.1282C18.4291 28.9347 18.2467 29.9004 18.4435 30.8445C18.8492 32.7903 20.7507 34.0478 22.7098 33.6399Z" fill="#F2F2F2"/>
<path d="M36.5214 19.9109C36.4341 19.493 36.1577 19.1597 35.763 18.9972C35.3683 18.8352 34.9383 18.8755 34.5812 19.1105L24.6025 25.6871L26.1484 33.112L37.9232 35.1607C38.3444 35.2359 38.7546 35.0999 39.0509 34.7937C39.3483 34.4869 39.4688 34.0712 39.3814 33.6533L36.5214 19.9109Z" fill="#F2F2F2"/>
<path d="M40.5984 27.652C40.9809 27.0682 41.1125 26.3717 40.9687 25.6902C40.8272 25.0069 40.4281 24.4205 39.8455 24.0379C39.4228 23.7609 38.9398 23.6182 38.4473 23.6123L39.4851 28.5994C39.9356 28.3962 40.3221 28.0739 40.5984 27.652Z" fill="#F2F2F2"/>
</svg>
