<svg width="134" height="36" viewBox="0 0 134 36" fill="none" xmlns="http://www.w3.org/2000/svg">
<rect width="36" height="36" rx="18" fill="#FEFA17"/>
<g clip-path="url(#clip0_64_4096)">
<path d="M36 35.9999H1.125C2.65423 35.2451 4.11995 34.3627 5.50726 33.3615C8.11772 31.4778 11.6613 29.588 15.7365 29.2258C22.6642 28.61 31.2457 33.7057 36 35.9999Z" fill="black"/>
<path d="M18.5596 24.2569C17.0831 20.7129 14.4254 19.1733 13.0197 19.0344C12.617 19.0078 12.2132 19.0659 11.8333 19.2051C11.4534 19.3442 11.1055 19.5615 10.8109 19.8435C11.0327 19.5686 11.2735 19.3103 11.5314 19.0707C11.1593 18.7265 10.7223 18.3944 10.7223 18.3944C11.1121 18.5816 11.5373 18.8292 11.6909 18.9258C12.0945 18.5659 12.525 18.2389 12.9784 17.9477C12.5902 17.6268 12.1818 17.3324 11.7559 17.0662C12.2901 17.247 12.8062 17.4795 13.2973 17.7605C13.9063 17.4039 14.54 17.0932 15.1932 16.8307C14.9387 16.6143 14.6725 16.4127 14.3958 16.227C14.778 16.3646 15.1492 16.5321 15.5062 16.7281C16.2093 16.4557 16.9294 16.2318 17.6619 16.0579C14.0356 15.0255 11.2007 16.1787 10.2085 17.2232C9.80551 17.654 9.55054 18.207 9.48204 18.799C9.04935 17.7912 8.29298 16.9648 7.33816 16.4564C5.17656 15.5326 3.01496 17.3439 3.01496 17.3439C3.91329 17.1663 4.84333 17.276 5.67857 17.6579L6.48179 17.1205L5.93843 17.7786C6.78882 18.2274 7.55785 18.8217 8.21225 19.5355C7.66822 19.1948 7.02441 19.0602 6.3932 19.1552C4.99347 19.3906 2.44798 21.1174 1.21362 24.758C1.75707 24.2569 2.33541 23.7969 2.94408 23.3815C2.994 22.9741 3.07096 22.5707 3.17442 22.174C3.16979 22.5168 3.18557 22.8595 3.22167 23.2004C3.80472 22.7975 4.41676 22.4402 5.05253 22.1317C5.10386 21.5588 5.2107 20.9925 5.37146 20.4412C5.33742 20.9518 5.33742 21.4641 5.37146 21.9747C5.85895 21.7572 6.36254 21.5796 6.87749 21.4434C6.87749 21.2563 6.93064 20.7612 7.00151 20.3265C7.00151 20.3265 7.00151 20.8819 7.0842 21.3891C7.27713 21.3448 7.474 21.3086 7.6748 21.2804C6.96608 21.9928 6.25145 23.5324 6.31642 26.841C6.31642 26.841 6.73574 25.8569 7.27319 24.8305C7.16924 24.4181 7.11372 23.9945 7.10782 23.5686C7.10782 23.5686 7.26138 24.0698 7.43265 24.5226C7.59212 24.2207 7.76339 23.9188 7.92876 23.6592L7.9701 23.5928C7.91104 23.2668 7.80473 22.6147 7.7752 22.1619C7.7752 22.1619 7.94648 22.7656 8.14728 23.3151C8.55034 22.6797 9.02401 22.0942 9.55882 21.5702C12.8544 27.3542 12.5118 35.7766 12.5118 35.7766L14.0592 35.6377C13.634 27.6078 11.0826 22.82 10.1317 21.2925C10.8991 21.15 11.6853 21.15 12.4528 21.2925C12.4528 20.7793 12.4528 20.2238 12.4528 20.2238C12.5532 20.6525 12.624 21.1476 12.6477 21.3287C13.1715 21.4282 13.6869 21.5695 14.1891 21.7513C14.2001 21.2331 14.1764 20.7146 14.1183 20.1997C14.3156 20.7392 14.4601 21.2974 14.5494 21.866C15.2146 22.1201 15.8602 22.4248 16.4807 22.7777C16.5 22.4359 16.5 22.0932 16.4807 21.7513C16.6103 22.1461 16.7129 22.5496 16.7878 22.9588C17.4081 23.3475 18.0002 23.7813 18.5596 24.2569Z" fill="black"/>
<path d="M9.57051 17.821C10.421 12.4415 13.5512 9.41063 15.4411 8.72838C15.9839 8.55036 16.5569 8.48904 17.1241 8.54826C17.6912 8.60749 18.2402 8.78598 18.7366 9.07253C18.3409 8.77967 17.9243 8.51732 17.4905 8.28764C17.8862 7.68389 18.3764 7.08013 18.3764 7.08013C17.9039 7.47257 17.4078 7.96161 17.2247 8.14274C16.5538 7.79442 15.8566 7.50166 15.1399 7.26729C15.5625 6.68745 16.0222 6.13683 16.516 5.61904C15.8417 6.04042 15.2106 6.5299 14.632 7.08013C13.6751 6.8067 12.7 6.60491 11.7144 6.47637C11.9895 6.08203 12.2853 5.70313 12.6003 5.34131C12.1254 5.66889 11.6734 6.03001 11.2478 6.42203C10.2117 6.29025 9.16733 6.23778 8.12354 6.26506C12.7598 3.5723 17.0298 4.17002 18.7307 5.26886C19.4253 5.72057 19.9611 6.38672 20.2604 7.17069C20.6029 5.68545 21.2408 4.09757 22.4161 3.21005C25.0384 1.21765 28.6056 2.9444 28.6056 2.9444C27.3157 3.01303 26.078 3.48749 25.062 4.30285L23.7804 3.84399L24.749 4.56246C23.7304 5.46886 22.8714 6.5471 22.2094 7.7503C22.8478 7.11047 23.6818 6.71405 24.5718 6.62731C26.5798 6.47637 30.655 7.94954 33.543 12.5139C32.6252 12.0029 31.674 11.5571 30.6963 11.1796C30.497 10.631 30.2582 10.0982 29.9817 9.58572C30.1006 10.0549 30.1933 10.5306 30.2593 11.0106C29.3237 10.6632 28.3643 10.3867 27.3889 10.1834C27.131 9.41393 26.7965 8.67348 26.3908 7.97369C26.5977 8.66598 26.7575 9.37204 26.8692 10.0868C26.1278 9.95561 25.3773 9.88495 24.6249 9.87552C24.5422 9.62798 24.3237 8.95781 24.0816 8.39028C24.0816 8.39028 24.241 9.16309 24.3237 9.87552C24.0461 9.87552 23.7331 9.87552 23.491 9.92382C24.6722 10.6604 26.19 12.52 27.194 17.0844C27.194 17.0844 26.2904 15.8769 25.2155 14.6694C25.2242 14.0597 25.1587 13.4513 25.0206 12.8581C25.0206 12.8581 24.9793 13.6007 24.8966 14.2829C24.5777 13.9267 24.2469 13.5766 23.928 13.2686L23.8512 13.1962C23.8512 12.7253 23.7508 11.8015 23.6386 11.1676C23.6386 11.1676 23.6386 12.0611 23.5087 12.8822C22.7572 12.1646 21.9268 11.5385 21.0341 11.0166C18.4413 20.073 21.6896 31.5444 21.6896 31.5444L19.5162 31.8945C17.4491 20.7431 19.3568 13.2626 20.1541 10.8295C19.0547 10.8928 17.975 11.1544 16.9648 11.6023C16.7522 10.914 16.5928 10.1412 16.5928 10.1412C16.598 10.6718 16.6295 11.2017 16.6873 11.7291C15.9994 12.0439 15.3377 12.4154 14.7087 12.84C14.5304 12.1373 14.3982 11.4233 14.313 10.7027C14.2239 11.5045 14.212 12.3134 14.2776 13.1177C13.4664 13.7075 12.6985 14.3573 11.9802 15.0618C11.8503 14.5951 11.7458 14.1214 11.6671 13.643C11.6274 14.2279 11.6274 14.815 11.6671 15.3999C10.9112 16.1533 10.2104 16.9625 9.57051 17.821Z" fill="black"/>
</g>
<path d="M46.86 26.5V14.36H42.2V12.1H53.93V14.36H49.27V26.5H46.86ZM54.5328 26.5V15.7H56.6628V18.33L56.4028 17.99C56.5361 17.63 56.7128 17.3033 56.9328 17.01C57.1595 16.71 57.4295 16.4633 57.7428 16.27C58.0095 16.09 58.3028 15.95 58.6228 15.85C58.9495 15.7433 59.2828 15.68 59.6228 15.66C59.9628 15.6333 60.2928 15.6467 60.6128 15.7V17.95C60.2928 17.8567 59.9228 17.8267 59.5028 17.86C59.0895 17.8933 58.7161 18.01 58.3828 18.21C58.0495 18.39 57.7761 18.62 57.5628 18.9C57.3561 19.18 57.2028 19.5 57.1028 19.86C57.0028 20.2133 56.9528 20.5967 56.9528 21.01V26.5H54.5328ZM65.2872 26.8C64.5072 26.8 63.8472 26.6533 63.3072 26.36C62.7672 26.06 62.3572 25.6633 62.0772 25.17C61.8039 24.6767 61.6672 24.1333 61.6672 23.54C61.6672 23.02 61.7539 22.5533 61.9272 22.14C62.1005 21.72 62.3672 21.36 62.7272 21.06C63.0872 20.7533 63.5539 20.5033 64.1272 20.31C64.5605 20.17 65.0672 20.0433 65.6472 19.93C66.2339 19.8167 66.8672 19.7133 67.5472 19.62C68.2339 19.52 68.9505 19.4133 69.6972 19.3L68.8372 19.79C68.8439 19.0433 68.6772 18.4933 68.3372 18.14C67.9972 17.7867 67.4239 17.61 66.6172 17.61C66.1305 17.61 65.6605 17.7233 65.2072 17.95C64.7539 18.1767 64.4372 18.5667 64.2572 19.12L62.0572 18.43C62.3239 17.5167 62.8305 16.7833 63.5772 16.23C64.3305 15.6767 65.3439 15.4 66.6172 15.4C67.5772 15.4 68.4205 15.5567 69.1472 15.87C69.8805 16.1833 70.4239 16.6967 70.7772 17.41C70.9705 17.79 71.0872 18.18 71.1272 18.58C71.1672 18.9733 71.1872 19.4033 71.1872 19.87V26.5H69.0772V24.16L69.4272 24.54C68.9405 25.32 68.3705 25.8933 67.7172 26.26C67.0705 26.62 66.2605 26.8 65.2872 26.8ZM65.7672 24.88C66.3139 24.88 66.7805 24.7833 67.1672 24.59C67.5539 24.3967 67.8605 24.16 68.0872 23.88C68.3205 23.6 68.4772 23.3367 68.5572 23.09C68.6839 22.7833 68.7539 22.4333 68.7672 22.04C68.7872 21.64 68.7972 21.3167 68.7972 21.07L69.5372 21.29C68.8105 21.4033 68.1872 21.5033 67.6672 21.59C67.1472 21.6767 66.7005 21.76 66.3272 21.84C65.9539 21.9133 65.6239 21.9967 65.3372 22.09C65.0572 22.19 64.8205 22.3067 64.6272 22.44C64.4339 22.5733 64.2839 22.7267 64.1772 22.9C64.0772 23.0733 64.0272 23.2767 64.0272 23.51C64.0272 23.7767 64.0939 24.0133 64.2272 24.22C64.3605 24.42 64.5539 24.58 64.8072 24.7C65.0672 24.82 65.3872 24.88 65.7672 24.88ZM76.32 26.5L72.4 15.7H74.81L77.53 23.53L80.24 15.7H82.66L78.74 26.5H76.32ZM84.6547 14.06V11.85H87.0647V14.06H84.6547ZM84.6547 26.5V15.7H87.0647V26.5H84.6547ZM90.2602 26.5V11.8H92.6702V26.5H90.2602ZM98.6856 26.8C97.9056 26.8 97.2456 26.6533 96.7056 26.36C96.1656 26.06 95.7556 25.6633 95.4756 25.17C95.2023 24.6767 95.0656 24.1333 95.0656 23.54C95.0656 23.02 95.1523 22.5533 95.3256 22.14C95.499 21.72 95.7656 21.36 96.1256 21.06C96.4856 20.7533 96.9523 20.5033 97.5256 20.31C97.959 20.17 98.4656 20.0433 99.0456 19.93C99.6323 19.8167 100.266 19.7133 100.946 19.62C101.632 19.52 102.349 19.4133 103.096 19.3L102.236 19.79C102.242 19.0433 102.076 18.4933 101.736 18.14C101.396 17.7867 100.822 17.61 100.016 17.61C99.529 17.61 99.059 17.7233 98.6056 17.95C98.1523 18.1767 97.8356 18.5667 97.6556 19.12L95.4556 18.43C95.7223 17.5167 96.229 16.7833 96.9756 16.23C97.729 15.6767 98.7423 15.4 100.016 15.4C100.976 15.4 101.819 15.5567 102.546 15.87C103.279 16.1833 103.822 16.6967 104.176 17.41C104.369 17.79 104.486 18.18 104.526 18.58C104.566 18.9733 104.586 19.4033 104.586 19.87V26.5H102.476V24.16L102.826 24.54C102.339 25.32 101.769 25.8933 101.116 26.26C100.469 26.62 99.659 26.8 98.6856 26.8ZM99.1656 24.88C99.7123 24.88 100.179 24.7833 100.566 24.59C100.952 24.3967 101.259 24.16 101.486 23.88C101.719 23.6 101.876 23.3367 101.956 23.09C102.082 22.7833 102.152 22.4333 102.166 22.04C102.186 21.64 102.196 21.3167 102.196 21.07L102.936 21.29C102.209 21.4033 101.586 21.5033 101.066 21.59C100.546 21.6767 100.099 21.76 99.7256 21.84C99.3523 21.9133 99.0223 21.9967 98.7356 22.09C98.4556 22.19 98.219 22.3067 98.0256 22.44C97.8323 22.5733 97.6823 22.7267 97.5756 22.9C97.4756 23.0733 97.4256 23.2767 97.4256 23.51C97.4256 23.7767 97.4923 24.0133 97.6256 24.22C97.759 24.42 97.9523 24.58 98.2056 24.7C98.4656 24.82 98.7856 24.88 99.1656 24.88Z" fill="#F2F2F2"/>
<defs>
<clipPath id="clip0_64_4096">
<rect width="34.875" height="33.75" fill="white" transform="translate(1.125 2.25)"/>
</clipPath>
</defs>
</svg>
