<svg width="60" height="60" viewBox="0 0 60 60" fill="none" xmlns="http://www.w3.org/2000/svg">
<g clip-path="url(#clip0_62_19125)">
<path d="M60 40.6055C60 31.8599 54.1072 24.2189 45.7974 21.9164C45.2751 9.74304 35.2098 0 22.9102 0C10.2773 0 0 10.2773 0 22.9102C0 27.0273 1.09589 31.0359 3.17688 34.5552L0.0842285 45.7356L11.2651 42.6434C14.5001 44.5564 18.1494 45.634 21.9159 45.7965C24.218 54.1068 31.8594 60 40.6055 60C44.0964 60 47.4911 59.0703 50.4739 57.3038L59.9153 59.9153L57.3038 50.4739C59.0703 47.4911 60 44.0964 60 40.6055ZM11.8199 38.8422L5.1265 40.6938L6.97815 34.0004L6.55609 33.3403C4.56711 30.2284 3.51562 26.6217 3.51562 22.9102C3.51562 12.2159 12.2159 3.51562 22.9102 3.51562C33.6044 3.51562 42.3047 12.2159 42.3047 22.9102C42.3047 33.6044 33.6044 42.3047 22.9102 42.3047C19.1986 42.3047 15.5923 41.2532 12.48 39.2642L11.8199 38.8422ZM54.8735 54.8735L49.9068 53.4993L49.2435 53.931C46.6722 55.6013 43.6848 56.4844 40.6055 56.4844C33.7317 56.4844 27.6915 52.0399 25.5515 45.667C36.0773 44.4534 44.4534 36.0773 45.6674 25.551C52.0399 27.6915 56.4844 33.7317 56.4844 40.6055C56.4844 43.6848 55.6013 46.6722 53.931 49.2435L53.4993 49.9068L54.8735 54.8735Z" fill="#F2F2F2"/>
<path d="M21.1523 31.7578H24.668V35.2734H21.1523V31.7578Z" fill="#F2F2F2"/>
<path d="M26.4258 17.5781C26.4258 18.5765 26.0193 19.498 25.2814 20.1732L21.1523 23.9525V28.2422H24.668V25.5006L27.6549 22.7669C29.1078 21.4371 29.9414 19.5461 29.9414 17.5781C29.9414 13.7009 26.7874 10.5469 22.9102 10.5469C19.0329 10.5469 15.8789 13.7009 15.8789 17.5781H19.3945C19.3945 15.6395 20.9715 14.0625 22.9102 14.0625C24.8488 14.0625 26.4258 15.6395 26.4258 17.5781Z" fill="#F2F2F2"/>
</g>
<defs>
<clipPath id="clip0_62_19125">
<rect width="60" height="60" fill="white"/>
</clipPath>
</defs>
</svg>
