<svg width="14" height="14" viewBox="0 0 14 14" fill="none" xmlns="http://www.w3.org/2000/svg">
<g clip-path="url(#clip0_581_25614)">
<path d="M13.3566 5.3503C13.269 5.07913 13.0285 4.88654 12.7439 4.86089L8.87878 4.50994L7.3504 0.932611C7.2377 0.670439 6.98105 0.500732 6.69589 0.500732C6.41073 0.500732 6.15407 0.670439 6.04138 0.933224L4.513 4.50994L0.647243 4.86089C0.363207 4.88715 0.123309 5.07913 0.0351346 5.3503C-0.0530392 5.62146 0.0283913 5.91888 0.243258 6.10636L3.16485 8.66862L2.30334 12.4636C2.2403 12.7426 2.3486 13.031 2.58012 13.1984C2.70457 13.2883 2.85016 13.3341 2.99698 13.3341C3.12357 13.3341 3.24914 13.2999 3.36183 13.2325L6.69589 11.2399L10.0287 13.2325C10.2726 13.3792 10.58 13.3658 10.811 13.1984C11.0427 13.0305 11.1509 12.742 11.0878 12.4636L10.2263 8.66862L13.1479 6.10687C13.3628 5.91888 13.4448 5.62197 13.3566 5.3503Z" fill="#FFC700"/>
</g>
<defs>
<clipPath id="clip0_581_25614">
<rect width="14" height="14" fill="white"/>
</clipPath>
</defs>
</svg>
