<svg width="14" height="14" viewBox="0 0 14 14" fill="none" xmlns="http://www.w3.org/2000/svg">
<g clip-path="url(#clip0_75_7165)">
<path d="M13.3566 5.35023C13.2689 5.07907 13.0284 4.88648 12.7438 4.86083L8.87869 4.50987L7.35031 0.93255C7.23761 0.670378 6.98096 0.500671 6.6958 0.500671C6.41064 0.500671 6.15398 0.670378 6.04129 0.933163L4.51291 4.50987L0.647152 4.86083C0.363115 4.88709 0.123217 5.07907 0.0350431 5.35023C-0.0531308 5.6214 0.0282998 5.91882 0.243166 6.1063L3.16476 8.66856L2.30325 12.4635C2.24021 12.7425 2.34851 13.031 2.58003 13.1983C2.70447 13.2882 2.85007 13.334 2.99689 13.334C3.12348 13.334 3.24905 13.2999 3.36174 13.2324L6.6958 11.2398L10.0286 13.2324C10.2725 13.3792 10.5799 13.3658 10.811 13.1983C11.0426 13.0305 11.1508 12.7419 11.0877 12.4635L10.2262 8.66856L13.1478 6.10681C13.3627 5.91882 13.4447 5.62191 13.3566 5.35023Z" fill="#FFC700"/>
</g>
<defs>
<clipPath id="clip0_75_7165">
<rect width="14" height="14" fill="white"/>
</clipPath>
</defs>
</svg>
